<svg width="382" height="402" viewBox="0 0 382 402" fill="none" xmlns="http://www.w3.org/2000/svg">
<path d="M252.662 200.935C271.498 217.239 282.802 240.483 282.802 266.904C282.802 316.084 241.703 355.963 191.001 355.963C140.299 355.963 99.2002 316.096 99.2002 266.904C99.2002 240.738 110.825 217.213 129.34 200.922" stroke="#FF0000" stroke-width="2" stroke-miterlimit="10" stroke-linecap="round" stroke-linejoin="round"/>
<path d="M184.881 307.003L197.121 290.683" stroke="#FF0000" stroke-width="2" stroke-miterlimit="10" stroke-linecap="round" stroke-linejoin="round"/>
<path d="M197.121 307.003L184.881 290.683" stroke="#FF0000" stroke-width="2" stroke-miterlimit="10" stroke-linecap="round" stroke-linejoin="round"/>
<path d="M272.916 218.316L329.981 192.27L341.389 250.077L285.219 251.691L272.916 218.316Z" stroke="#FF0000" stroke-width="2" stroke-miterlimit="10" stroke-linecap="round" stroke-linejoin="round"/>
<path d="M341.389 232.948C341.389 232.948 379.899 251.149 380.971 227.599C382.042 204.05 351.726 214.04 351.726 214.04C351.726 214.04 360.285 202.625 355.293 198.702C350.301 194.78 335.679 210.483 335.679 210.483L341.389 232.948Z" stroke="#FF0000" stroke-width="2" stroke-miterlimit="10" stroke-linecap="round" stroke-linejoin="round"/>
<path d="M109.083 220.498L52.0174 194.451L40.6094 252.258L96.7798 253.885L109.083 220.498Z" stroke="#FF0000" stroke-width="2" stroke-miterlimit="10" stroke-linecap="round" stroke-linejoin="round"/>
<path d="M40.6093 235.131C40.6093 235.131 2.09922 253.332 1.02775 229.783C-0.0437264 206.234 30.2727 216.224 30.2727 216.224C30.2727 216.224 21.7135 204.809 26.7053 200.886C31.6971 196.963 46.3196 212.667 46.3196 212.667L40.6093 235.131Z" stroke="#FF0000" stroke-width="2" stroke-miterlimit="10" stroke-linecap="round" stroke-linejoin="round"/>
<path d="M201.975 353.202V389.062V400.843H310.395C310.395 400.843 310.685 353.202 264.372 353.202C211.517 353.202 201.975 353.202 201.975 353.202Z" stroke="#FF0000" stroke-width="2" stroke-miterlimit="10" stroke-linecap="round" stroke-linejoin="round"/>
<path d="M201.975 389.062H308.025" stroke="#FF0000" stroke-width="2" stroke-miterlimit="10" stroke-linecap="round" stroke-linejoin="round"/>
<path d="M256.342 353.202H244.417V369.435H256.342V353.202Z" stroke="#FF0000" stroke-width="2" stroke-miterlimit="10" stroke-linecap="round" stroke-linejoin="round"/>
<path d="M273.854 353.936V369.437H284.203V356.862L273.854 353.936Z" stroke="#FF0000" stroke-width="2" stroke-miterlimit="10" stroke-linecap="round" stroke-linejoin="round"/>
<path d="M244.417 337.121V353.203" stroke="#FF0000" stroke-width="2" stroke-miterlimit="10" stroke-linecap="round" stroke-linejoin="round"/>
<path d="M180.029 353.202V389.062V400.843H71.6084C71.6084 400.843 71.3185 353.202 117.631 353.202C170.487 353.202 180.029 353.202 180.029 353.202Z" stroke="#FF0000" stroke-width="2" stroke-miterlimit="10" stroke-linecap="round" stroke-linejoin="round"/>
<path d="M180.028 389.062H73.4609" stroke="#FF0000" stroke-width="2" stroke-miterlimit="10" stroke-linecap="round" stroke-linejoin="round"/>
<path d="M137.586 353.202H125.661V369.435H137.586V353.202Z" stroke="#FF0000" stroke-width="2" stroke-miterlimit="10" stroke-linecap="round" stroke-linejoin="round"/>
<path d="M108.151 353.936V369.437H97.8018V356.862L108.151 353.936Z" stroke="#FF0000" stroke-width="2" stroke-miterlimit="10" stroke-linecap="round" stroke-linejoin="round"/>
<path d="M137.586 339.102V353.203" stroke="#FF0000" stroke-width="2" stroke-miterlimit="10" stroke-linecap="round" stroke-linejoin="round"/>
<path d="M235.921 53.8515C235.921 53.8515 261.523 1.02701 319.294 1.38018C320.719 1.73335 280.116 23.5165 279.738 74.0076C279.624 73.9319 235.921 53.8515 235.921 53.8515Z" stroke="#FF0000" stroke-width="2" stroke-miterlimit="10" stroke-linecap="round" stroke-linejoin="round"/>
<path d="M146.081 53.4731C146.081 53.4731 120.479 0.64859 62.7075 1.00176C61.2831 1.35494 101.886 23.1381 102.264 73.6292C102.377 73.5535 146.081 53.4731 146.081 53.4731Z" stroke="#FF0000" stroke-width="2" stroke-miterlimit="10" stroke-linecap="round" stroke-linejoin="round"/>
<path d="M272.578 14.4731C272.578 14.4731 277.57 30.6308 293.087 28.4991" stroke="#FF0000" stroke-width="2" stroke-miterlimit="10" stroke-linecap="round" stroke-linejoin="round"/>
<path d="M253.48 31.1738C253.48 31.1738 260.628 54.1301 282.826 51.1029" stroke="#FF0000" stroke-width="2" stroke-miterlimit="10" stroke-linecap="round" stroke-linejoin="round"/>
<path d="M110.784 14.814C110.784 14.814 105.792 30.9716 90.2744 28.84" stroke="#FF0000" stroke-width="2" stroke-miterlimit="10" stroke-linecap="round" stroke-linejoin="round"/>
<path d="M129.885 31.5146C129.885 31.5146 122.737 54.4709 100.539 51.4437" stroke="#FF0000" stroke-width="2" stroke-miterlimit="10" stroke-linecap="round" stroke-linejoin="round"/>
<path d="M191.001 213.162C257.475 213.162 311.362 176.628 311.362 131.561C311.362 86.4944 257.475 49.9604 191.001 49.9604C124.527 49.9604 70.6396 86.4944 70.6396 131.561C70.6396 176.628 124.527 213.162 191.001 213.162Z" stroke="#FF0000" stroke-width="2" stroke-miterlimit="10" stroke-linecap="round" stroke-linejoin="round"/>
<path d="M191.001 160.122C216.914 160.122 237.921 146.421 237.921 129.521C237.921 112.621 216.914 98.9209 191.001 98.9209C165.087 98.9209 144.08 112.621 144.08 129.521C144.08 146.421 165.087 160.122 191.001 160.122Z" stroke="#FF0000" stroke-width="2" stroke-miterlimit="10" stroke-linecap="round" stroke-linejoin="round"/>
<path d="M113.583 138.033C120.378 138.033 125.886 128.579 125.886 116.918C125.886 105.257 120.378 95.8032 113.583 95.8032C106.789 95.8032 101.28 105.257 101.28 116.918C101.28 128.579 106.789 138.033 113.583 138.033Z" fill="#FF0000"/>
<path d="M268.417 138.033C275.212 138.033 280.72 128.579 280.72 116.918C280.72 105.257 275.212 95.8032 268.417 95.8032C261.622 95.8032 256.114 105.257 256.114 116.918C256.114 128.579 261.622 138.033 268.417 138.033Z" fill="#FF0000"/>
</svg>
